# xmcd
#
# Track frame offsets:
# 150
# 54201
# 109169
# 151257
# 172468
# 233631
#
# Disc length: 3349 seconds
#
# Revision: 0
# Processed by: cddbd v1.5.2PL0 Copyright (c) Steve Scherf et al.
# Submitted via: Audion 3.0.2 (http://www.panic.com/audion/)
#
DISCID=450d1306
DTITLE=Jim Hall - Montreal JF 1987 JH and RC JH and Kronos
DYEAR=1900
DGENRE=
TTITLE0=1
TTITLE1=2
TTITLE2=3
TTITLE3=4
TTITLE4=5
TTITLE5=6
EXTD=
EXTT0=
EXTT1=
EXTT2=
EXTT3=
EXTT4=
EXTT5=
PLAYORDER=
